<mxfile host="app.diagrams.net" modified="2023-11-14T12:33:14.831Z" agent="Mozilla/5.0 (Macintosh; Intel Mac OS X 10_15_7) AppleWebKit/537.36 (KHTML, like Gecko) Chrome/118.0.0.0 Safari/537.36" etag="Dg4x71MyXbKSIOqaI5wc" version="22.1.0" type="github" pages="2">
  <diagram name="Page-1" id="A8rjAGy7m6uV3lR91uhL">
    <mxGraphModel dx="2099" dy="1944" grid="1" gridSize="10" guides="1" tooltips="1" connect="1" arrows="1" fold="1" page="1" pageScale="1" pageWidth="827" pageHeight="1169" math="0" shadow="0">
      <root>
        <mxCell id="0" />
        <mxCell id="1" parent="0" />
        <mxCell id="ZjSXq8db_ukLcgHvI46K-1" value="&lt;h1&gt;Virtual Machines&lt;/h1&gt;&lt;p&gt;Lorem ipsum dolor sit amet, consectetur adipisicing elit, sed do eiusmod tempor incididunt ut labore et dolore magna aliqua.&lt;/p&gt;" style="text;html=1;strokeColor=none;fillColor=none;spacing=5;spacingTop=-20;whiteSpace=wrap;overflow=hidden;rounded=0;" parent="1" vertex="1">
          <mxGeometry x="-200" y="-90" width="190" height="120" as="geometry" />
        </mxCell>
        <mxCell id="ZjSXq8db_ukLcgHvI46K-2" value="&lt;h1&gt;&lt;span style=&quot;background-color: initial;&quot;&gt;Logging in from everywhere&lt;/span&gt;&lt;/h1&gt;&lt;h1&gt;&lt;span style=&quot;background-color: initial; font-size: 12px; font-weight: normal;&quot;&gt;Lorem ipsum dolor sit amet, consectetur adipisicing elit, sed do eiusmod tempor incididunt ut labore et dolore magna aliqua.&lt;/span&gt;&lt;br&gt;&lt;/h1&gt;" style="text;html=1;strokeColor=none;fillColor=none;spacing=5;spacingTop=-20;whiteSpace=wrap;overflow=hidden;rounded=0;" parent="1" vertex="1">
          <mxGeometry x="40" y="190" width="210" height="250" as="geometry" />
        </mxCell>
        <mxCell id="ZjSXq8db_ukLcgHvI46K-3" value="&lt;h1&gt;&lt;span style=&quot;background-color: initial;&quot;&gt;Dockers&lt;/span&gt;&lt;/h1&gt;&lt;h1&gt;&lt;span style=&quot;background-color: initial; font-size: 12px; font-weight: normal;&quot;&gt;Lorem ipsum dolor sit amet, consectetur adipisicing elit, sed do eiusmod tempor incididunt ut labore et dolore magna aliqua.&lt;/span&gt;&lt;br&gt;&lt;/h1&gt;" style="text;html=1;strokeColor=none;fillColor=none;spacing=5;spacingTop=-20;whiteSpace=wrap;overflow=hidden;rounded=0;" parent="1" vertex="1">
          <mxGeometry x="90" y="-90" width="190" height="120" as="geometry" />
        </mxCell>
        <mxCell id="ZjSXq8db_ukLcgHvI46K-4" value="&lt;h1&gt;&lt;span style=&quot;background-color: initial;&quot;&gt;Server structure&amp;nbsp;&lt;/span&gt;&lt;/h1&gt;&lt;h1&gt;&lt;span style=&quot;font-size: 12px; font-weight: 400;&quot;&gt;* Folder structure&lt;/span&gt;&lt;/h1&gt;&lt;div&gt;&lt;span style=&quot;font-size: 12px; font-weight: 400;&quot;&gt;* What to use what for?&lt;/span&gt;&lt;/div&gt;" style="text;html=1;strokeColor=none;fillColor=none;spacing=5;spacingTop=-20;whiteSpace=wrap;overflow=hidden;rounded=0;" parent="1" vertex="1">
          <mxGeometry x="-230" y="200" width="210" height="250" as="geometry" />
        </mxCell>
        <mxCell id="ZjSXq8db_ukLcgHvI46K-5" value="&lt;h1&gt;&lt;span style=&quot;background-color: initial;&quot;&gt;Digital Ocean&lt;/span&gt;&lt;/h1&gt;&lt;h1&gt;&lt;span style=&quot;background-color: initial; font-size: 12px; font-weight: normal;&quot;&gt;Lorem ipsum dolor sit amet, consectetur adipisicing elit, sed do eiusmod tempor incididunt ut labore et dolore magna aliqua.&lt;/span&gt;&lt;br&gt;&lt;/h1&gt;" style="text;html=1;strokeColor=none;fillColor=none;spacing=5;spacingTop=-20;whiteSpace=wrap;overflow=hidden;rounded=0;" parent="1" vertex="1">
          <mxGeometry x="390" y="-90" width="190" height="120" as="geometry" />
        </mxCell>
        <mxCell id="ZjSXq8db_ukLcgHvI46K-6" value="&lt;h1&gt;VOLUME&amp;nbsp; GB / BACKUP&lt;/h1&gt;&lt;h1&gt;&lt;span style=&quot;background-color: initial; font-size: 12px; font-weight: normal;&quot;&gt;Lorem ipsum dolor sit amet, consectetur adipisicing elit, sed do eiusmod tempor incididunt ut labore et dolore magna aliqua.&lt;/span&gt;&lt;br&gt;&lt;/h1&gt;" style="text;html=1;strokeColor=none;fillColor=none;spacing=5;spacingTop=-20;whiteSpace=wrap;overflow=hidden;rounded=0;" parent="1" vertex="1">
          <mxGeometry x="390" y="150" width="210" height="250" as="geometry" />
        </mxCell>
        <mxCell id="ZjSXq8db_ukLcgHvI46K-7" value="&lt;h1&gt;&lt;span style=&quot;background-color: initial;&quot;&gt;Hardware&lt;/span&gt;&lt;/h1&gt;&lt;h1&gt;&lt;span style=&quot;background-color: initial; font-size: 12px; font-weight: normal;&quot;&gt;Mattermost.&lt;/span&gt;&lt;br&gt;&lt;/h1&gt;" style="text;html=1;strokeColor=none;fillColor=none;spacing=5;spacingTop=-20;whiteSpace=wrap;overflow=hidden;rounded=0;" parent="1" vertex="1">
          <mxGeometry x="-50" y="-290" width="190" height="120" as="geometry" />
        </mxCell>
        <mxCell id="ZjSXq8db_ukLcgHvI46K-8" value="&lt;h1&gt;&lt;span style=&quot;background-color: initial;&quot;&gt;Unraid&lt;/span&gt;&lt;/h1&gt;&lt;h1&gt;&lt;span style=&quot;background-color: initial; font-size: 12px; font-weight: normal;&quot;&gt;Lorem ipsum dolor sit amet, consectetur adipisicing elit, sed do eiusmod tempor incididunt ut labore et dolore magna aliqua.&lt;/span&gt;&lt;br&gt;&lt;/h1&gt;" style="text;html=1;strokeColor=none;fillColor=none;spacing=5;spacingTop=-20;whiteSpace=wrap;overflow=hidden;rounded=0;" parent="1" vertex="1">
          <mxGeometry x="200" y="-300" width="190" height="120" as="geometry" />
        </mxCell>
        <mxCell id="ZjSXq8db_ukLcgHvI46K-9" value="&lt;h1&gt;&lt;span style=&quot;background-color: initial;&quot;&gt;Synology nas&lt;/span&gt;&lt;/h1&gt;&lt;h1&gt;&lt;span style=&quot;background-color: initial; font-size: 12px; font-weight: normal;&quot;&gt;Lorem ipsum dolor sit amet, consectetur adipisicing elit, sed do eiusmod tempor incididunt ut labore et dolore magna aliqua.&lt;/span&gt;&lt;br&gt;&lt;/h1&gt;" style="text;html=1;strokeColor=none;fillColor=none;spacing=5;spacingTop=-20;whiteSpace=wrap;overflow=hidden;rounded=0;" parent="1" vertex="1">
          <mxGeometry x="450" y="-310" width="190" height="120" as="geometry" />
        </mxCell>
        <mxCell id="ZjSXq8db_ukLcgHvI46K-10" value="&lt;h1&gt;KASM?&amp;nbsp;&lt;/h1&gt;&lt;h1&gt;&lt;span style=&quot;background-color: initial; font-size: 12px; font-weight: normal;&quot;&gt;Lorem ipsum dolor sit amet, consectetur adipisicing elit, sed do eiusmod tempor incididunt ut labore et dolore magna aliqua.&lt;/span&gt;&lt;br&gt;&lt;/h1&gt;" style="text;html=1;strokeColor=none;fillColor=none;spacing=5;spacingTop=-20;whiteSpace=wrap;overflow=hidden;rounded=0;" parent="1" vertex="1">
          <mxGeometry x="750" y="-100" width="210" height="250" as="geometry" />
        </mxCell>
        <mxCell id="ZjSXq8db_ukLcgHvI46K-11" value="&lt;h1&gt;&lt;span style=&quot;background-color: initial;&quot;&gt;SECURITY&lt;/span&gt;&lt;/h1&gt;&lt;h1&gt;&lt;span style=&quot;background-color: initial; font-size: 12px; font-weight: normal;&quot;&gt;VPN.&lt;/span&gt;&lt;br&gt;&lt;/h1&gt;&lt;div&gt;&lt;span style=&quot;background-color: initial; font-size: 12px; font-weight: normal;&quot;&gt;Reverse Proxy&lt;/span&gt;&lt;/div&gt;" style="text;html=1;strokeColor=none;fillColor=none;spacing=5;spacingTop=-20;whiteSpace=wrap;overflow=hidden;rounded=0;" parent="1" vertex="1">
          <mxGeometry x="-300" y="-330" width="190" height="120" as="geometry" />
        </mxCell>
        <mxCell id="ZjSXq8db_ukLcgHvI46K-12" value="&lt;h1&gt;HomeAssistant&lt;/h1&gt;&lt;p&gt;Lorem ipsum dolor sit amet, consectetur adipisicing elit, sed do eiusmod tempor incididunt ut labore et dolore magna aliqua.&lt;/p&gt;" style="text;html=1;strokeColor=none;fillColor=none;spacing=5;spacingTop=-20;whiteSpace=wrap;overflow=hidden;rounded=0;" parent="1" vertex="1">
          <mxGeometry x="-460" y="-110" width="190" height="120" as="geometry" />
        </mxCell>
        <mxCell id="ZjSXq8db_ukLcgHvI46K-13" value="&lt;h1&gt;Raspberry PI / NUC&amp;nbsp;&amp;nbsp;&lt;/h1&gt;&lt;h1&gt;&lt;span style=&quot;background-color: initial; font-size: 12px; font-weight: normal;&quot;&gt;Lorem ipsum dolor sit amet, consectetur adipisicing elit, sed do eiusmod tempor incididunt ut labore et dolore magna aliqua.&lt;/span&gt;&lt;br&gt;&lt;/h1&gt;" style="text;html=1;strokeColor=none;fillColor=none;spacing=5;spacingTop=-20;whiteSpace=wrap;overflow=hidden;rounded=0;" parent="1" vertex="1">
          <mxGeometry x="730" y="160" width="210" height="250" as="geometry" />
        </mxCell>
        <mxCell id="ZjSXq8db_ukLcgHvI46K-14" value="&lt;h1&gt;&lt;span style=&quot;background-color: initial;&quot;&gt;Fast picture editing via SSD?&lt;br&gt;&lt;/span&gt;&lt;br&gt;&lt;/h1&gt;" style="text;html=1;strokeColor=none;fillColor=none;spacing=5;spacingTop=-20;whiteSpace=wrap;overflow=hidden;rounded=0;" parent="1" vertex="1">
          <mxGeometry x="-490" y="130" width="190" height="120" as="geometry" />
        </mxCell>
      </root>
    </mxGraphModel>
  </diagram>
  <diagram id="kJ-3UKL9-RvuIDZjWLys" name="Page-2">
    <mxGraphModel dx="954" dy="585" grid="1" gridSize="10" guides="1" tooltips="1" connect="1" arrows="1" fold="1" page="1" pageScale="1" pageWidth="827" pageHeight="1169" math="0" shadow="0">
      <root>
        <mxCell id="0" />
        <mxCell id="1" parent="0" />
        <mxCell id="KsQtqJYnsqnrZrzb_LNE-6" style="edgeStyle=orthogonalEdgeStyle;rounded=0;orthogonalLoop=1;jettySize=auto;html=1;entryX=0;entryY=0.5;entryDx=0;entryDy=0;startArrow=diamondThin;startFill=1;" edge="1" parent="1" source="KsQtqJYnsqnrZrzb_LNE-1" target="KsQtqJYnsqnrZrzb_LNE-2">
          <mxGeometry relative="1" as="geometry" />
        </mxCell>
        <mxCell id="KsQtqJYnsqnrZrzb_LNE-7" value="2 way sync" style="edgeLabel;html=1;align=center;verticalAlign=middle;resizable=0;points=[];" vertex="1" connectable="0" parent="KsQtqJYnsqnrZrzb_LNE-6">
          <mxGeometry x="-0.0615" y="-3" relative="1" as="geometry">
            <mxPoint as="offset" />
          </mxGeometry>
        </mxCell>
        <mxCell id="KsQtqJYnsqnrZrzb_LNE-1" value="&lt;h1&gt;Project Tracker / Redmine&lt;/h1&gt;" style="text;html=1;strokeColor=none;fillColor=none;spacing=5;spacingTop=-20;whiteSpace=wrap;overflow=hidden;rounded=0;" vertex="1" parent="1">
          <mxGeometry x="70" y="310" width="190" height="110" as="geometry" />
        </mxCell>
        <mxCell id="KsQtqJYnsqnrZrzb_LNE-2" value="&lt;h1&gt;Cloud&lt;/h1&gt;&lt;div&gt;files&lt;/div&gt;&lt;div&gt;&lt;br&gt;&lt;/div&gt;" style="text;html=1;strokeColor=none;fillColor=none;spacing=5;spacingTop=-20;whiteSpace=wrap;overflow=hidden;rounded=0;" vertex="1" parent="1">
          <mxGeometry x="520" y="310" width="190" height="110" as="geometry" />
        </mxCell>
        <mxCell id="KsQtqJYnsqnrZrzb_LNE-4" style="edgeStyle=orthogonalEdgeStyle;rounded=0;orthogonalLoop=1;jettySize=auto;html=1;" edge="1" parent="1" source="KsQtqJYnsqnrZrzb_LNE-3" target="KsQtqJYnsqnrZrzb_LNE-1">
          <mxGeometry relative="1" as="geometry" />
        </mxCell>
        <mxCell id="KsQtqJYnsqnrZrzb_LNE-5" style="edgeStyle=orthogonalEdgeStyle;rounded=0;orthogonalLoop=1;jettySize=auto;html=1;entryX=0.5;entryY=0;entryDx=0;entryDy=0;" edge="1" parent="1" source="KsQtqJYnsqnrZrzb_LNE-3" target="KsQtqJYnsqnrZrzb_LNE-2">
          <mxGeometry relative="1" as="geometry" />
        </mxCell>
        <mxCell id="KsQtqJYnsqnrZrzb_LNE-3" value="&lt;h1&gt;Project&lt;/h1&gt;" style="text;html=1;strokeColor=none;fillColor=none;spacing=5;spacingTop=-20;whiteSpace=wrap;overflow=hidden;rounded=0;" vertex="1" parent="1">
          <mxGeometry x="319" y="160" width="190" height="120" as="geometry" />
        </mxCell>
      </root>
    </mxGraphModel>
  </diagram>
</mxfile>
